<svg xmlns="http://www.w3.org/2000/svg" viewBox="0 0 256 256" role="img">
  <g style="display:inline">
    <path style="display:inline;fill:currentColor;fill-opacity:1;stroke:none;stroke-width:2.23589;stroke-linecap:round;stroke-linejoin:round;stroke-dasharray:none;stroke-opacity:1" d="m 126.31055,49.273438 a 79.828499,79.828499 0 0 0 -79.828128,79.830082 79.828499,79.828499 0 0 0 79.828128,79.82812 79.828499,79.828499 0 0 0 58.89257,-26.11523 6.6156613,6.6156613 0 0 1 -3.08203,-1.17969 c -10.0506,-7.65795 -25.13161,-18.86328 -37.91406,-28.41211 -6.39122,-4.77442 -12.2086,-9.13446 -16.56836,-12.45703 -2.17988,-1.66129 -3.99032,-3.05899 -5.35937,-4.14649 -0.68453,-0.54374 -1.25589,-1.00777 -1.74219,-1.41992 -0.4863,-0.41215 -0.69107,-0.46343 -1.56641,-1.51172 a 6.6156613,6.6156613 0 0 1 0.82618,-9.30664 l 61.1914,-51.347654 a 6.6156613,6.6156613 0 0 1 1.37695,-0.751953 79.828499,79.828499 0 0 0 -56.05468,-23.009765 z" />
    <g transform="matrix(0.70867334,0.844564,-0.844564,0.70867334,149.07041,-68.603738)" style="display:inline">
      <path style="display:inline;fill:currentColor;fill-opacity:1;stroke:#0d6efd;stroke-width:2.205;stroke-linecap:round;stroke-linejoin:round;stroke-dasharray:none;stroke-opacity:1" d="m 191.85591,78.645783 -61.19295,51.346987 c 1.76565,2.1145 41.85526,31.51395 62.08225,46.92568 22.69675,-28.94322 22.32752,-69.74493 -0.8893,-98.272667 z" transform="matrix(0.58302731,-0.69482489,0.69482489,0.58302731,-39.244535,143.57568)" />
    </g>
    <g transform="matrix(1.1602061,0,0,1.1602059,-20.362916,-18.24543)" style="display:inline">
      </g>
  </g>
</svg>
